<?xml version="1.0" encoding="utf-8"?>
<!-- Generator: Adobe Illustrator 19.0.0, SVG Export Plug-In . SVG Version: 6.00 Build 0)  -->
<svg version="1.1" id="圖層_1" xmlns="http://www.w3.org/2000/svg" xmlns:xlink="http://www.w3.org/1999/xlink" x="0px" y="0px"
	 viewBox="56 25.4 225 63" style="enable-background:new 56 25.4 225 63;" xml:space="preserve">
<style type="text/css">
	.st0{fill:#90C741;}
	.st1{fill:#C4DA34;}
	.st2{fill:#589BA2;}
	.st3{fill:#302A29;}
</style>
<g id="XMLID_37_">
	<g id="XMLID_76_">
		<circle id="XMLID_10_" class="st0" cx="106.1" cy="51.2" r="4.1"/>
		<path id="XMLID_9_" class="st0" d="M93.4,88.4H60.3c-2.3,0-4.1-1.8-4.1-4.1l0,0c0-2.3,1.8-4.1,4.1-4.1h33.1c2.3,0,4.1,1.8,4.1,4.1
			l0,0C97.5,86.5,95.6,88.4,93.4,88.4z"/>
		<circle id="XMLID_8_" class="st0" cx="118.9" cy="84.2" r="4.1"/>
		<path id="XMLID_7_" class="st0" d="M93.4,71.8H60.3c-2.3,0-4.1-1.8-4.1-4.1l0,0c0-2.3,1.8-4.1,4.1-4.1h33.1c2.3,0,4.1,1.8,4.1,4.1
			l0,0C97.5,70,95.6,71.8,93.4,71.8z"/>
	</g>
	<g id="XMLID_70_">
		<path id="XMLID_6_" class="st1" d="M80.6,55.3H60.3c-2.3,0-4.1-1.8-4.1-4.1l0,0c0-2.3,1.8-4.1,4.1-4.1h20.3c2.3,0,4.1,1.8,4.1,4.1
			l0,0C84.7,53.5,82.9,55.3,80.6,55.3z"/>
		<circle id="XMLID_5_" class="st1" cx="93.3" cy="51.2" r="4.1"/>
		<circle id="XMLID_4_" class="st1" cx="118.9" cy="51.2" r="4.1"/>
		<path id="XMLID_3_" class="st1" d="M110.2,85.2c0.7-3-2-5.6-5-5c-1.5,0.3-2.7,1.6-3.1,3.1c-0.7,3,2,5.6,5,5
			C108.6,87.9,109.8,86.7,110.2,85.2z"/>
		<path id="XMLID_2_" class="st1" d="M118.9,71.8H93.3c-2.3,0-4.1-1.8-4.1-4.1l0,0c0-2.3,1.8-4.1,4.1-4.1h25.6
			c2.3,0,4.1,1.8,4.1,4.1l0,0C123,70,121.2,71.8,118.9,71.8z"/>
	</g>
	<circle id="XMLID_1_" class="st2" cx="93.3" cy="67.7" r="4.1"/>
	<g id="XMLID_38_">
		<rect id="XMLID_68_" x="238.9" y="46.7" class="st3" width="3.3" height="20.3"/>
		<rect id="XMLID_67_" x="181.7" y="68" class="st3" width="3.3" height="20.3"/>
		<path id="XMLID_66_" class="st3" d="M189.7,67l-6.1-8.8l0,0c2.6-0.6,4.5-3,4.4-5.8c-0.1-3.2-2.8-5.7-6-5.7h-5.2h-2.6h-0.8l0,0V67
			l0,0h3.4l0,0v-8.6v-3v-0.5v-4.7v-0.5h0.3h4.8h0.1c1.5,0.1,2.6,1.3,2.6,2.9c0,1.6-1.2,2.8-2.6,2.9l0,0h-0.1h-3.7l0,0
			c0.1,0.2,0.3,0.5,0.5,0.7l7.5,10.9l0,0L189.7,67C189.7,67.1,189.7,67.1,189.7,67z"/>
		<polygon id="XMLID_65_" class="st3" points="258.5,46.7 258.5,62.2 247.9,46.7 247.6,46.7 244.3,46.7 244.3,67.1 247.6,67.1 
			247.6,51.6 258.1,67.1 258.5,67.1 258.5,67.1 261.7,67.1 261.7,46.7 		"/>
		<polygon id="XMLID_64_" class="st3" points="218.8,68 218.8,83.5 208.2,68 207.9,68 204.6,68 204.6,88.4 207.9,88.4 207.9,72.9 
			218.5,88.4 218.8,88.4 218.8,88.4 222.1,88.4 222.1,68 		"/>
		<polygon id="XMLID_63_" class="st3" points="173.2,67.1 165.2,46.7 164.5,46.7 161.6,46.7 160.9,46.7 152.8,67.1 156.4,67.1 
			163,50.4 169.6,67.1 		"/>
		<polygon id="XMLID_62_" class="st3" points="152.6,46.7 152.6,46.7 149.4,46.7 149.4,46.7 149.1,46.7 142.5,56.4 135.9,46.7 
			135.6,46.7 135.6,46.7 132.3,46.7 132.3,46.7 132.3,67.1 135.6,67.1 135.6,67.1 135.6,66.5 135.6,51.6 140.7,59 142.5,61.7 
			144.3,59 149.4,51.6 149.4,66.5 149.7,67.1 149.7,67.1 149.4,66.5 149.4,67.1 149.4,67.1 149.4,67.1 152.6,67.1 		"/>
		<g id="XMLID_58_">
			<polygon id="XMLID_61_" class="st3" points="189.9,46.7 189.9,67.1 193.2,67.1 193.2,55.4 193.2,46.7 			"/>
			<polygon id="XMLID_60_" class="st3" points="197.3,55.4 193.2,55.4 202.9,67.1 207.3,67.1 			"/>
			<polygon id="XMLID_59_" class="st3" points="205.7,46.7 202.1,46.7 197.4,55.4 201.2,55.4 			"/>
		</g>
		<polygon id="XMLID_57_" class="st3" points="237,46.7 232.2,46.7 228.9,46.7 224,46.7 224,49.6 228.9,49.6 228.9,67.1 232.2,67.1 
			232.2,49.6 237,49.6 		"/>
		<polygon id="XMLID_56_" class="st3" points="222,49.6 222,46.7 210.8,46.7 207.5,46.7 207.5,49.6 207.5,54.8 207.5,57.7 
			207.5,64.2 207.5,67.1 207.5,67.1 210.8,67.1 210.8,67.1 222,67.1 222,64.2 210.8,64.2 210.8,57.7 220.5,57.7 220.5,54.8 
			210.8,54.8 210.8,49.6 		"/>
		<polygon id="XMLID_55_" class="st3" points="165.2,70.9 165.2,68 154,68 150.7,68 150.7,70.9 150.7,76.1 150.7,79 150.7,85.5 
			150.7,88.4 150.7,88.4 154,88.4 154,88.4 164.4,88.4 165.2,85.5 154,85.5 154,79 163.8,79 163.8,76.1 154,76.1 154,70.9 		"/>
		<path id="XMLID_52_" class="st3" d="M141,68L141,68h-5.4h-2.8h-0.5v7.9v0.8v2.9v0.8v8h0.5h2.8h5.4l0,0c4.8,0,8.7-3.9,8.7-8.7v-2.9
			C149.7,72,145.8,68,141,68z M146.2,80.4c0,2.8-2.3,5-5,5H141h-3.7h-1.7v-0.3V71.3V71h1.7h3.7h0.2c2.8,0,5,2.3,5,5V80.4z"/>
		<path id="XMLID_51_" class="st3" d="M277.5,55.4h-5.4v2.9h5.4v0.4c0,3-2.4,5.4-5.4,5.4l0,0c-3,0-5.4-2.4-5.4-5.4v-3.8
			c0-3,2.4-5.4,5.4-5.4l0,0c2.1,0,3.9,1.2,4.8,2.9h3.5c-1.1-3.4-4.3-5.8-8-5.8h-0.6c-4.6,0-8.4,3.8-8.4,8.4v3.5
			c0,4.6,3.8,8.4,8.4,8.4h0.6c4.6,0,8.4-3.8,8.4-8.4v-0.3v-2.8H277.5z"/>
		<path id="XMLID_50_" class="st3" d="M200.2,76.7h-5.4v2.9h5.4V80c0,3-2.4,5.4-5.4,5.4l0,0c-3,0-5.4-2.4-5.4-5.4v-3.8
			c0-3,2.4-5.4,5.4-5.4l0,0c2.1,0,3.9,1.2,4.8,2.9h3.5c-1.1-3.4-4.3-5.8-8-5.8h-0.6c-4.6,0-8.4,3.8-8.4,8.4v3.5
			c0,4.6,3.8,8.4,8.4,8.4h0.6c4.6,0,8.4-3.8,8.4-8.4v-0.3v-2.9L200.2,76.7L200.2,76.7z"/>
		<path id="XMLID_49_" class="st3" d="M178.9,78c-1-0.8-2.2-1.4-3.6-1.4h-0.5H172c-1.6,0-2.8-1.3-2.8-2.8l0,0c0-1.6,1.3-2.8,2.8-2.8
			h2.8h4.9l0,0l0.8-2.9h-5.8h-2.8c-2.1,0-4,1.2-5,2.9c-0.5,0.9-0.8,1.9-0.8,2.9V74c0,1.5,0.6,3,1.6,4c1.1,1.1,2.6,1.8,4.2,1.8h2.8
			h0.1c1.6,0,2.8,1.3,2.8,2.8c0,1.6-1.3,2.8-2.8,2.8h-3.1h-5.4l0,0l-0.7,2.9h5.5h4.1c2.1,0,3.9-1.2,4.8-2.9c0.4-0.8,0.6-1.6,0.6-2.6
			V82C180.7,80.4,180,79,178.9,78z"/>
		<path id="XMLID_48_" class="st3" d="M183.8,45.7l-6.1-8.8l0,0c2.6-0.6,4.5-3,4.4-5.8c-0.1-3.2-2.8-5.7-6-5.7H171h-2.6h-0.8l0,0
			v20.3l0,0h3.4l0,0V37v-2.9v-0.5v-4.7v-0.5h0.3h4.8h0.1c1.5,0.1,2.6,1.3,2.6,2.9s-1.2,2.8-2.6,2.9l0,0H176h-3.7l0,0
			c0.1,0.2,0.3,0.5,0.5,0.7l7.5,10.9l0,0L183.8,45.7C183.8,45.8,183.8,45.8,183.8,45.7z"/>
		<path id="XMLID_45_" class="st3" d="M158.3,25.4h-0.6c-4.6,0-8.4,3.8-8.4,8.4v3.6c0,4.6,3.8,8.4,8.4,8.4h0.6
			c4.6,0,8.4-3.8,8.4-8.4v-3.5C166.7,29.2,162.9,25.4,158.3,25.4z M163.4,37.5c0,3-2.4,5.4-5.4,5.4l0,0c-3,0-5.4-2.4-5.4-5.4v-3.8
			c0-3,2.4-5.4,5.4-5.4l0,0c3,0,5.4,2.4,5.4,5.4V37.5z"/>
		<polygon id="XMLID_44_" class="st3" points="198.1,25.4 198.1,40.9 187.5,25.4 187.2,25.4 183.9,25.4 183.9,45.8 187.2,45.8 
			187.2,30.3 197.8,45.8 198.1,45.8 198.1,45.8 201.4,45.8 201.4,25.4 		"/>
		<polygon id="XMLID_43_" class="st3" points="222.1,45.8 214,25.4 213.3,25.4 210.4,25.4 209.8,25.4 201.7,45.8 205.3,45.8 
			211.9,29.1 218.5,45.8 		"/>
		<path id="XMLID_39_" class="st3" d="M145.8,35.5c-0.1,0-0.1-0.1-0.2-0.1c0.1-0.1,0.2-0.1,0.3-0.2c1.1-1,1.8-2.4,1.8-3.9
			c0-3.2-2.6-5.8-5.8-5.8h-1.1h-1.9h-3.2h-1.2h-2.2v5.8V40v5.8h2.2h1.2h5.4h1.5c0.5,0,1-0.1,1.5-0.2c2.5-0.6,4.4-2.9,4.4-5.6
			C148.4,38.2,147.4,36.6,145.8,35.5z M135.7,28.3h6h0.1c1.5,0.1,2.6,1.3,2.6,2.9c0,1.6-1.2,2.8-2.6,2.9h-0.1h-0.6h-5.4V28.3z
			 M142.5,42.9C142.4,42.9,142.4,42.9,142.5,42.9h-4.9h-1.8v-0.6v-4.7v-0.5h1.8h3.2h1.1h0.5h0.1c1.5,0,2.6,1.3,2.6,2.9
			C145.1,41.6,143.9,42.8,142.5,42.9z"/>
	</g>
</g>
</svg>
