<svg enable-background="new 56 25.4 225 63" viewBox="56 25.4 225 63" xmlns="http://www.w3.org/2000/svg"><circle cx="106.1" cy="51.2" fill="#90c741" r="4.1"/><path d="m93.4 88.4h-33.1c-2.3 0-4.1-1.8-4.1-4.1s1.8-4.1 4.1-4.1h33.1c2.3 0 4.1 1.8 4.1 4.1 0 2.2-1.9 4.1-4.1 4.1z" fill="#90c741"/><circle cx="118.9" cy="84.2" fill="#90c741" r="4.1"/><path d="m93.4 71.8h-33.1c-2.3 0-4.1-1.8-4.1-4.1s1.8-4.1 4.1-4.1h33.1c2.3 0 4.1 1.8 4.1 4.1s-1.9 4.1-4.1 4.1z" fill="#90c741"/><g fill="#c4da34"><path d="m80.6 55.3h-20.3c-2.3 0-4.1-1.8-4.1-4.1s1.8-4.1 4.1-4.1h20.3c2.3 0 4.1 1.8 4.1 4.1s-1.8 4.1-4.1 4.1z"/><circle cx="93.3" cy="51.2" r="4.1"/><circle cx="118.9" cy="51.2" r="4.1"/><path d="m110.2 85.2c.7-3-2-5.6-5-5-1.5.3-2.7 1.6-3.1 3.1-.7 3 2 5.6 5 5 1.5-.4 2.7-1.6 3.1-3.1z"/><path d="m118.9 71.8h-25.6c-2.3 0-4.1-1.8-4.1-4.1s1.8-4.1 4.1-4.1h25.6c2.3 0 4.1 1.8 4.1 4.1s-1.8 4.1-4.1 4.1z"/></g><circle cx="93.3" cy="67.7" fill="#589ba2" r="4.1"/><g fill="#302a29"><path d="m238.9 46.7h3.3v20.3h-3.3z"/><path d="m181.7 68h3.3v20.3h-3.3z"/><path d="m189.7 67-6.1-8.8c2.6-.6 4.5-3 4.4-5.8-.1-3.2-2.8-5.7-6-5.7h-5.2-2.6-.8v20.3h3.4v-8.6-3-.5-4.7-.5h.3 4.8.1c1.5.1 2.6 1.3 2.6 2.9s-1.2 2.8-2.6 2.9h-.1-3.7c.1.2.3.5.5.7l7.5 10.9 3.5-.1c0 .1 0 .1 0 0z"/><path d="m258.5 46.7v15.5l-10.6-15.5h-.3-3.3v20.4h3.3v-15.5l10.5 15.5h.4 3.2v-20.4z"/><path d="m218.8 68v15.5l-10.6-15.5h-.3-3.3v20.4h3.3v-15.5l10.6 15.5h.3 3.3v-20.4z"/><path d="m173.2 67.1-8-20.4h-.7-2.9-.7l-8.1 20.4h3.6l6.6-16.7 6.6 16.7z"/><path d="m152.6 46.7h-3.2-.3l-6.6 9.7-6.6-9.7h-.3-3.3v20.4h3.3v-.6-14.9l5.1 7.4 1.8 2.7 1.8-2.7 5.1-7.4v14.9l.3.6-.3-.6v.6h3.2z"/><path d="m189.9 46.7v20.4h3.3v-11.7-8.7z"/><path d="m197.3 55.4h-4.1l9.7 11.7h4.4z"/><path d="m205.7 46.7h-3.6l-4.7 8.7h3.8z"/><path d="m237 46.7h-4.8-3.3-4.9v2.9h4.9v17.5h3.3v-17.5h4.8z"/><path d="m222 49.6v-2.9h-11.2-3.3v2.9 5.2 2.9 6.5 2.9h3.3 11.2v-2.9h-11.2v-6.5h9.7v-2.9h-9.7v-5.2z"/><path d="m165.2 70.9v-2.9h-11.2-3.3v2.9 5.2 2.9 6.5 2.9h3.3 10.4l.8-2.9h-11.2v-6.5h9.8v-2.9h-9.8v-5.2z"/><path d="m141 68h-5.4-2.8-.5v7.9.8 2.9.8 8h.5 2.8 5.4c4.8 0 8.7-3.9 8.7-8.7v-2.9c0-4.8-3.9-8.8-8.7-8.8zm5.2 12.4c0 2.8-2.3 5-5 5h-.2-3.7-1.7v-.3-13.8-.3h1.7 3.7.2c2.8 0 5 2.3 5 5z"/><path d="m277.5 55.4h-5.4v2.9h5.4v.4c0 3-2.4 5.4-5.4 5.4s-5.4-2.4-5.4-5.4v-3.8c0-3 2.4-5.4 5.4-5.4 2.1 0 3.9 1.2 4.8 2.9h3.5c-1.1-3.4-4.3-5.8-8-5.8h-.6c-4.6 0-8.4 3.8-8.4 8.4v3.5c0 4.6 3.8 8.4 8.4 8.4h.6c4.6 0 8.4-3.8 8.4-8.4v-.3-2.8z"/><path d="m200.2 76.7h-5.4v2.9h5.4v.4c0 3-2.4 5.4-5.4 5.4s-5.4-2.4-5.4-5.4v-3.8c0-3 2.4-5.4 5.4-5.4 2.1 0 3.9 1.2 4.8 2.9h3.5c-1.1-3.4-4.3-5.8-8-5.8h-.6c-4.6 0-8.4 3.8-8.4 8.4v3.5c0 4.6 3.8 8.4 8.4 8.4h.6c4.6 0 8.4-3.8 8.4-8.4v-.3-2.9z"/><path d="m178.9 78c-1-.8-2.2-1.4-3.6-1.4h-.5-2.8c-1.6 0-2.8-1.3-2.8-2.8 0-1.6 1.3-2.8 2.8-2.8h2.8 4.9l.8-2.9h-5.8-2.8c-2.1 0-4 1.2-5 2.9-.5.9-.8 1.9-.8 2.9v.1c0 1.5.6 3 1.6 4 1.1 1.1 2.6 1.8 4.2 1.8h2.8.1c1.6 0 2.8 1.3 2.8 2.8 0 1.6-1.3 2.8-2.8 2.8h-3.1-5.4l-.7 2.9h5.5 4.1c2.1 0 3.9-1.2 4.8-2.9.4-.8.6-1.6.6-2.6v-.8c.1-1.6-.6-3-1.7-4z"/><path d="m183.8 45.7-6.1-8.8c2.6-.6 4.5-3 4.4-5.8-.1-3.2-2.8-5.7-6-5.7h-5.1-2.6-.8v20.3h3.4v-8.7-2.9-.5-4.7-.5h.3 4.8.1c1.5.1 2.6 1.3 2.6 2.9s-1.2 2.8-2.6 2.9h-.2-3.7c.1.2.3.5.5.7l7.5 10.9 3.5-.1c0 .1 0 .1 0 0z"/><path d="m158.3 25.4h-.6c-4.6 0-8.4 3.8-8.4 8.4v3.6c0 4.6 3.8 8.4 8.4 8.4h.6c4.6 0 8.4-3.8 8.4-8.4v-3.5c0-4.7-3.8-8.5-8.4-8.5zm5.1 12.1c0 3-2.4 5.4-5.4 5.4s-5.4-2.4-5.4-5.4v-3.8c0-3 2.4-5.4 5.4-5.4s5.4 2.4 5.4 5.4z"/><path d="m198.1 25.4v15.5l-10.6-15.5h-.3-3.3v20.4h3.3v-15.5l10.6 15.5h.3 3.3v-20.4z"/><path d="m222.1 45.8-8.1-20.4h-.7-2.9-.6l-8.1 20.4h3.6l6.6-16.7 6.6 16.7z"/><path d="m145.8 35.5c-.1 0-.1-.1-.2-.1.1-.1.2-.1.3-.2 1.1-1 1.8-2.4 1.8-3.9 0-3.2-2.6-5.8-5.8-5.8h-1.1-1.9-3.2-1.2-2.2v5.8 8.7 5.8h2.2 1.2 5.4 1.5c.5 0 1-.1 1.5-.2 2.5-.6 4.4-2.9 4.4-5.6-.1-1.8-1.1-3.4-2.7-4.5zm-10.1-7.2h6 .1c1.5.1 2.6 1.3 2.6 2.9s-1.2 2.8-2.6 2.9h-.1-.6-5.4zm6.8 14.6c-.1 0-.1 0 0 0h-4.9-1.8v-.6-4.7-.5h1.8 3.2 1.1.5.1c1.5 0 2.6 1.3 2.6 2.9s-1.2 2.8-2.6 2.9z"/></g></svg>