<?xml version="1.0" encoding="utf-8"?>
<!-- Generator: Adobe Illustrator 19.0.0, SVG Export Plug-In . SVG Version: 6.00 Build 0)  -->
<svg version="1.1" id="圖層_1" xmlns="http://www.w3.org/2000/svg" xmlns:xlink="http://www.w3.org/1999/xlink" x="0px" y="0px"
	 viewBox="-185 389.9 256.5 76.9" style="enable-background:new -185 389.9 256.5 76.9;" xml:space="preserve">
<style type="text/css">
	.st0{fill:#90C741;}
	.st1{fill:#C4DA34;}
	.st2{fill:#589BA2;}
	.st3{fill:#302A29;}
</style>
<g>
	<circle class="st0" cx="-126.3" cy="421.6" r="4.6"/>
	<path class="st0" d="M-140.4,463h-36.8c-2.6,0-4.6-2-4.6-4.6c0-2.6,2-4.6,4.6-4.6h36.8c2.6,0,4.6,2,4.6,4.6
		C-135.8,460.9-137.9,463-140.4,463z"/>
	<circle class="st0" cx="-112" cy="458.4" r="4.6"/>
	<path class="st0" d="M-140.4,444.6h-36.8c-2.6,0-4.6-2-4.6-4.6c0-2.6,2-4.6,4.6-4.6h36.8c2.6,0,4.6,2,4.6,4.6
		C-135.8,442.6-137.9,444.6-140.4,444.6z"/>
	<g>
		<path class="st1" d="M-154.6,426.2h-22.6c-2.6,0-4.6-2-4.6-4.6c0-2.6,2-4.6,4.6-4.6h22.6c2.6,0,4.6,2,4.6,4.6
			C-150.1,424.2-152.1,426.2-154.6,426.2z"/>
		<circle class="st1" cx="-140.5" cy="421.6" r="4.6"/>
		<circle class="st1" cx="-112" cy="421.6" r="4.6"/>
		<path class="st1" d="M-121.7,459.5c0.8-3.3-2.2-6.2-5.6-5.6c-1.7,0.3-3,1.8-3.5,3.5c-0.8,3.3,2.2,6.2,5.6,5.6
			C-123.5,462.5-122.1,461.1-121.7,459.5z"/>
		<path class="st1" d="M-112,444.6h-28.5c-2.6,0-4.6-2-4.6-4.6c0-2.6,2-4.6,4.6-4.6h28.5c2.6,0,4.6,2,4.6,4.6
			C-107.4,442.6-109.4,444.6-112,444.6z"/>
	</g>
	<circle class="st2" cx="-140.5" cy="440" r="4.6"/>
	<g>
		<path class="st3" d="M21.6,416.6h3.7v22.6h-3.7V416.6z"/>
		<path class="st3" d="M-42.1,440.3h3.7v22.6h-3.7V440.3z"/>
		<path class="st3" d="M-33.2,439.2l-6.8-9.8c2.9-0.7,5-3.3,4.9-6.5c-0.1-3.6-3.1-6.3-6.7-6.3h-5.8h-2.9h-0.9v22.6h3.8v-9.6v-3.3
			v-0.6v-5.2V420h0.3h5.3h0.1c1.7,0.1,2.9,1.4,2.9,3.2s-1.3,3.1-2.9,3.2h-0.1H-46c0.1,0.2,0.3,0.6,0.6,0.8l8.3,12.1L-33.2,439.2
			C-33.2,439.3-33.2,439.3-33.2,439.2L-33.2,439.2z"/>
		<path class="st3" d="M43.4,416.6v17.3l-11.8-17.3h-0.3h-3.7v22.7h3.7v-17.3l11.7,17.3h0.4h3.6v-22.7H43.4z"/>
		<path class="st3" d="M-0.8,440.3v17.3l-11.8-17.3h-0.3h-3.7V463h3.7v-17.3L-1.1,463h0.3h3.7v-22.7H-0.8z"/>
		<path class="st3" d="M-51.6,439.3l-8.9-22.7h-0.8h-3.2h-0.8l-9,22.7h4l7.3-18.6l7.3,18.6H-51.6z"/>
		<path class="st3" d="M-74.5,416.6h-3.6h-0.3l-7.3,10.8l-7.3-10.8h-0.3h-3.7v22.7h3.7v-0.7v-16.6l5.7,8.2l2,3l2-3l5.7-8.2v16.6
			l0.3,0.7l-0.3-0.7v0.7h3.6V416.6z"/>
		<path class="st3" d="M-33,416.6v22.7h3.7v-13v-9.7H-33z"/>
		<path class="st3" d="M-24.7,426.3h-4.6l10.8,13h4.9L-24.7,426.3z"/>
		<path class="st3" d="M-15.4,416.6h-4l-5.2,9.7h4.2L-15.4,416.6z"/>
		<path class="st3" d="M19.5,416.6h-5.3h-3.7H5v3.2h5.5v19.5h3.7v-19.5h5.3V416.6z"/>
		<path class="st3" d="M2.8,419.9v-3.2H-9.7h-3.7v3.2v5.8v3.2v7.2v3.2h3.7H2.8v-3.2H-9.7v-7.2H1.1v-3.2H-9.7v-5.8H2.8z"/>
		<path class="st3" d="M-60.5,443.6v-3.2h-12.5h-3.7v3.2v5.8v3.2v7.2v3.2h3.7h11.6l0.9-3.2h-12.5v-7.2H-62v-3.2h-10.9v-5.8H-60.5z"
			/>
		<path class="st3" d="M-87.4,440.3h-6h-3.1h-0.6v8.8v0.9v3.2v0.9v8.9h0.6h3.1h6c5.3,0,9.7-4.3,9.7-9.7v-3.2
			C-77.7,444.8-82.1,440.3-87.4,440.3z M-81.6,454.1c0,3.1-2.6,5.6-5.6,5.6h-0.2h-4.1h-1.9v-0.3V444v-0.3h1.9h4.1h0.2
			c3.1,0,5.6,2.6,5.6,5.6V454.1z"/>
		<path class="st3" d="M64.5,426.3h-6v3.2h6v0.4c0,3.3-2.7,6-6,6s-6-2.7-6-6v-4.2c0-3.3,2.7-6,6-6c2.3,0,4.3,1.3,5.3,3.2h3.9
			c-1.2-3.8-4.8-6.5-8.9-6.5h-0.7c-5.1,0-9.3,4.2-9.3,9.3v3.9c0,5.1,4.2,9.3,9.3,9.3h0.7c5.1,0,9.3-4.2,9.3-9.3v-0.3v-3.1H64.5z"/>
		<path class="st3" d="M-21.5,450h-6v3.2h6v0.4c0,3.3-2.7,6-6,6s-6-2.7-6-6v-4.2c0-3.3,2.7-6,6-6c2.3,0,4.3,1.3,5.3,3.2h3.9
			c-1.2-3.8-4.8-6.5-8.9-6.5h-0.7c-5.1,0-9.3,4.2-9.3,9.3v3.9c0,5.1,4.2,9.3,9.3,9.3h0.7c5.1,0,9.3-4.2,9.3-9.3v-0.3v-3.2L-21.5,450
			z"/>
		<path class="st3" d="M-45.2,451.5c-1.1-0.9-2.4-1.6-4-1.6h-0.6h-3.1c-1.8,0-3.1-1.4-3.1-3.1c0-1.8,1.4-3.1,3.1-3.1h3.1h5.5
			l0.9-3.2h-6.5H-53c-2.3,0-4.5,1.3-5.6,3.2c-0.6,1-0.9,2.1-0.9,3.2v0.1c0,1.7,0.7,3.3,1.8,4.5c1.2,1.2,2.9,2,4.7,2h3.1h0.1
			c1.8,0,3.1,1.4,3.1,3.1c0,1.8-1.4,3.1-3.1,3.1h-3.5h-6l-0.8,3.2h6.1h4.6c2.3,0,4.3-1.3,5.3-3.2c0.4-0.9,0.7-1.8,0.7-2.9v-0.9
			C-43.2,454.1-44,452.6-45.2,451.5L-45.2,451.5z"/>
		<path class="st3" d="M-39.8,415.5l-6.8-9.8c2.9-0.7,5-3.3,4.9-6.5c-0.1-3.6-3.1-6.3-6.7-6.3H-54h-2.9h-0.9v22.6h3.8v-9.7v-3.2V402
			v-5.2v-0.6h0.3h5.3h0.1c1.7,0.1,2.9,1.4,2.9,3.2s-1.3,3.1-2.9,3.2h-0.2h-4.1c0.1,0.2,0.3,0.6,0.6,0.8l8.3,12.1L-39.8,415.5
			C-39.8,415.6-39.8,415.6-39.8,415.5L-39.8,415.5z"/>
		<path class="st3" d="M-68.1,392.9h-0.7c-5.1,0-9.3,4.2-9.3,9.3v4c0,5.1,4.2,9.3,9.3,9.3h0.7c5.1,0,9.3-4.2,9.3-9.3v-3.9
			C-58.8,397.1-63,392.9-68.1,392.9z M-62.5,406.4c0,3.3-2.7,6-6,6c-3.3,0-6-2.7-6-6v-4.2c0-3.3,2.7-6,6-6c3.3,0,6,2.7,6,6V406.4z"
			/>
		<path class="st3" d="M-23.8,392.9v17.3l-11.8-17.3H-36h-3.7v22.7h3.7v-17.3l11.8,17.3h0.3h3.7v-22.7H-23.8z"/>
		<path class="st3" d="M2.9,415.6l-9-22.7h-0.8h-3.2h-0.7l-9,22.7h4l7.3-18.6l7.3,18.6H2.9z"/>
		<path class="st3" d="M-82.1,404.2c-0.1,0-0.1-0.1-0.2-0.1c0.1-0.1,0.2-0.1,0.3-0.2c1.2-1.1,2-2.7,2-4.3c0-3.6-2.9-6.5-6.5-6.5
			h-1.2h-2.1h-3.6h-1.3h-2.4v6.5v9.7v6.5h2.4h1.3h6h1.7c0.6,0,1.1-0.1,1.7-0.2c2.8-0.7,4.9-3.2,4.9-6.2
			C-79.2,407.2-80.3,405.4-82.1,404.2z M-93.3,396.1h6.7h0.1c1.7,0.1,2.9,1.4,2.9,3.2s-1.3,3.1-2.9,3.2h-0.1h-0.7h-6V396.1z
			 M-85.7,412.4C-85.8,412.4-85.8,412.4-85.7,412.4h-5.5h-2v-0.7v-5.2v-0.6h2h3.6h1.2h0.6h0.1c1.7,0,2.9,1.4,2.9,3.2
			S-84.2,412.3-85.7,412.4L-85.7,412.4z"/>
	</g>
</g>
</svg>
